<svg width="211.1" height="211.3" xmlns="http://www.w3.org/2000/svg"><g fill-rule="evenodd"><path d="M86.06 24.53c-1.85.11-3.91.33-4.58.48-.66.15-2.06.35-3.1.46-1.03.1-2 .28-2.15.39-.15.1-.94.28-1.75.37-.82.1-2.09.35-2.83.55-2.78.78-4.61 1.27-5.66 1.54-.59.15-1.32.38-1.61.5-.95.4-2.69.92-2.9.86-.1-.03-.2.07-.2.22s-.2.27-.44.27-1.18.32-2.09.71l-2.86 1.24-3.23 1.39c-.52.22-1.67.83-2.56 1.34-.89.52-2.37 1.34-3.3 1.82-.92.49-1.68 1.05-1.68 1.25 0 .37.5 1.44.78 1.68a8.4 8.4 0 0 1 1.25 2.08c.22.48.54.88.71.88.17 0 .24.07.15.16s.2.74.63 1.44.79 1.43.79 1.61c0 .18.1.25.24.17.14-.09.4.26.56.77.17.51.4.97.53 1.02.12.04.58.77 1.03 1.61.45.85.87 1.48.94 1.4.08-.07.21.18.3.55.16.63 1.11 2.24 1.8 3.06.16.19.6.95.98 1.68.39.74.82 1.34.97 1.34.16 0 .21.07.13.16-.18.17.14.8 1.27 2.54 1 1.54 1.67 2.65 2.09 3.5.18.37.48.83.67 1.03.19.2.34.55.34.78 0 .24.08.35.18.25.1-.1.4.28.68.84a22.11 22.11 0 0 0 2.38 3.84c.09.07.32.52.51 1 .2.48.44.88.54.88.1 0 .36.42.56.94.2.52.45.94.56.94.1 0 .26.22.36.48.1.25.44.91.77 1.45l1.51 2.56c.5.87.99 1.63 1.08 1.7.1.08.32.45.5.82.4.77 1.9 3.22 2.48 4.03.41.57 1.21.73 1.48.3.13-.21 2.1-1.21 4.32-2.2.94-.4 2.93-1.08 4.04-1.37.6-.15 1.32-.38 1.62-.5.6-.27 4.6-.76 6.96-.87.86-.03 1.68-.2 1.82-.36.15-.18.22-11.42.18-28.02l-.07-27.71-2.16-.04c-1.18-.01-3.67.07-5.52.19m44.77 95.13l-.63 4.72c-.17 1.37-.4 2.49-.5 2.49-.11 0-.28.5-.38 1.13-.1.62-.28 1.26-.4 1.41-.13.16-.31.65-.42 1.09-.1.44-.48 1.42-.84 2.18a8.27 8.27 0 0 0-.66 1.69c0 .17-.1.31-.24.31-.13 0-.31.3-.4.67-.1.37-.3.68-.44.68s-.26.16-.26.35c0 .34-1.39 2.62-2.02 3.32-.15.17-.64.77-1.08 1.33-.44.56-1.26 1.51-1.82 2.12a6.4 6.4 0 0 0-1 1.27c0 .4 39.12 39.28 39.53 39.28.45 0 3.83-3.36 3.83-3.8 0-.13.18-.24.4-.24.22 0 .4-.1.4-.23 0-.12.28-.54.61-.92a32.95 32.95 0 0 0 2.47-3.13c.14-.24.4-.55.57-.7.5-.42 2.55-3.32 2.55-3.6 0-.14.12-.3.26-.35a11 11 0 0 0 1.47-1.98c.67-1.03 1.3-2 1.43-2.15.11-.15.42-.7.68-1.21.25-.52.89-1.67 1.41-2.56 1-1.7 1.76-3.27 1.76-3.67 0-.13.12-.24.26-.24.15 0 .27-.12.27-.26 0-.25.76-2.02 1.91-4.47.29-.6.52-1.3.52-1.55s.1-.45.24-.45c.13 0 .3-.27.38-.6a52.8 52.8 0 0 1 1.68-4.92c.19-.45.43-1.3.52-1.89.1-.6.29-1.32.42-1.62.42-.97 1.3-4.54 1.5-6.06.1-.81.29-1.54.41-1.63.13-.08.37-1.71.55-3.63.18-1.92.42-3.56.54-3.64.11-.08.3-2.53.4-5.45l.18-5.3h-55.76l-.3 2.21m-71.4 18.12c-.78.52-1.51.94-1.6.95-.1 0-.91.5-1.8 1.08-.9.6-1.9 1.15-2.22 1.24-.34.08-.61.25-.61.37 0 .13-.33.4-.74.6-.99.5-2.06 1.11-2.22 1.28-.27.26-1.76 1.12-2.5 1.42-.4.17-.74.4-.74.5 0 .09-.36.32-.8.5-.45.19-.81.43-.81.54 0 .11-.4.37-.88.56a4.8 4.8 0 0 0-1.23.71c-.2.2-.53.35-.74.35-.21 0-.38.1-.38.23 0 .14-.4.4-.88.6-.48.2-.94.42-1.01.5-.28.32-2.42 1.63-2.67 1.63a.4.4 0 0 0-.34.23c-.08.2-1.98 1.32-4.06 2.4-.4.2-.74.46-.74.56 0 .11-.33.34-.74.53-.41.18-.99.48-1.28.67-.89.56-6.3 3.8-7.07 4.23-.4.22-.88.55-1.07.72a3 3 0 0 1-.95.51 2 2 0 0 0-.74.37c-.08.1-.74.52-1.48.95-.75.42-1.41.85-1.49.94a4 4 0 0 1-1 .53c-.49.2-.88.44-.88.55 0 .2-1.36.94-1.63.88-.47-.09-.73.98-.38 1.58.2.36.56 1.04.8 1.52.22.48.53.88.67.88.15 0 .27.12.27.26 0 .4 1.52 2.7 1.68 2.55.07-.07.29.24.48.7.32.78.82 1.45 2.35 3.16.33.37.6.76.6.87 0 .1.46.67 1.02 1.27 2.66 2.86 3.03 3.27 3.03 3.4 0 .4 2.49 2.6 2.93 2.6.64 0 39.67-39.03 39.43-39.44a25.9 25.9 0 0 0-2.1-2.4c-.77-.84-2.24-2.9-2.55-3.61-.14-.33-.38-.6-.53-.6-.16 0-.28-.19-.28-.41 0-.63-.56-.49-2.12.54" fill="#6ca444"/><path d="M41.43 39.94c-.6.61-1.14 1-1.36 1-.12 0-.64.36-1.16.8-.51.44-1.07.8-1.24.8-.17.01-.38.2-.46.42-.09.22-.28.4-.43.4-.15 0-.7.43-1.24.95s-1.08.94-1.21.94c-.13 0-.66.43-1.18.94-.52.52-1.01.95-1.1.95-.08 0-.63.51-1.2 1.14l-1.06 1.14L49.5 69.16C60.35 80 69.36 88.88 69.52 88.88c.67.01 1.71-1.2 1.55-1.81-.08-.33-.25-.6-.36-.6-.11 0-.37-.4-.56-.88a3.1 3.1 0 0 0-.64-1.07c-.16-.1-.28-.32-.28-.48a.68.68 0 0 0-.27-.48c-.15-.1-.45-.56-.68-1a5.45 5.45 0 0 0-.55-.94c-.08-.08-.31-.53-.5-1.01-.2-.48-.47-.88-.6-.88s-.23-.17-.23-.37c0-.2-.18-.52-.4-.7-.22-.19-.34-.44-.26-.58.08-.13.03-.23-.13-.23-.15 0-.35-.3-.45-.68-.1-.37-.27-.6-.4-.52-.14.08-.25-.03-.25-.24 0-.22-.4-.98-.9-1.7-.48-.72-1.06-1.7-1.27-2.19-.21-.48-.46-.87-.55-.87-.1 0-.33-.36-.51-.8-.18-.45-.43-.82-.55-.82-.12 0-.3-.27-.41-.6-.1-.34-.27-.67-.36-.74a13 13 0 0 1-1.45-2.53 9.78 9.78 0 0 0-.82-1.43l-.59-.7a7.05 7.05 0 0 1-.62-1c-.19-.37-.61-1.11-.94-1.65l-1.67-2.78c-.59-1-1.29-2.14-1.55-2.53-.26-.4-.62-1.02-.8-1.39-.2-.37-.66-1.16-1.04-1.75-.38-.6-.98-1.62-1.34-2.29A28.4 28.4 0 0 0 47 47.22a5.72 5.72 0 0 1-.6-1.08c-.19-.42-.42-.81-.51-.89-.1-.07-.54-.82-.99-1.67-.44-.84-.87-1.47-.94-1.4-.08.08-.27-.25-.43-.72-.49-1.39-1.51-2.13-2.11-1.52M.16 123.84c.02 1.43.14 2.8.26 3.02.12.23.35 1.9.5 3.74.17 1.83.4 3.52.53 3.77.13.24.32 1.26.42 2.26.1 1 .28 1.82.4 1.82.1 0 .34.94.52 2.08.17 1.14.42 2.14.54 2.22.29.2.88 3.24.7 3.54-.09.13-.4.24-.68.24-.34 0-.52.19-.52.55 0 .46.08.5.52.27.7-.38 1.36-.35 1.37.06 0 .18.16.64.35 1 .19.38.5 1.26.7 1.96.2.7.45 1.28.57 1.28.1 0 .28.44.38.98.1.54.35 1.24.55 1.55.2.31.44.96.54 1.44.1.49.3.81.43.73.13-.08.24-.02.24.14s.55 1.43 1.22 2.82a29.14 29.14 0 0 1 1.2 2.72c0 1.07 1.6.88 3.21-.38.54-.41 1.16-.83 1.38-.93 1.26-.57 5.26-2.99 5.66-3.43.07-.08.52-.3 1-.5.49-.2.88-.45.88-.56 0-.18.34-.33 1.15-.5.1-.02.42-.26.69-.53a8.26 8.26 0 0 1 1.75-1.1c.7-.34 1.26-.72 1.26-.86 0-.13.09-.22.2-.19.11.03.87-.38 1.69-.9.8-.53 1.75-1.05 2.08-1.15.34-.1.6-.3.6-.45 0-.13.13-.25.27-.25.27 0 3-1.58 3.24-1.88a4.3 4.3 0 0 1 1.01-.52c.48-.2.88-.43.88-.53 0-.09.66-.52 1.48-.96a5.3 5.3 0 0 0 1.48-1c0-.1.36-.26.8-.36.45-.1.9-.32 1.02-.5.1-.17.56-.49 1-.71.45-.22.88-.47.95-.55.33-.35 3.97-2.41 4.26-2.41.17 0 .32-.13.32-.28 0-.15.31-.4.7-.54.39-.15 1.34-.7 2.12-1.2a7.82 7.82 0 0 1 1.68-.95c.14 0 .56-.24.91-.53l.92-.76c.37-.3 1.3-.69 1.55-.64.1.03.2-.07.2-.22s.48-.48 1.07-.74c.6-.25 1.13-.6 1.2-.77.15-.42-.4-2.53-.67-2.53-.11 0-.3-.4-.4-.88-.1-.48-.34-1.24-.54-1.68a35.18 35.18 0 0 1-1.37-5.8c-.07-.51-.18-1.2-.25-1.54l-.13-.6H.11l.05 2.61m111.22 26.54c-.52.32-1 .66-1.08.74-.07.09-.65.32-1.28.53-.63.2-1.14.45-1.14.55 0 .1-.52.3-1.15.47-.63.16-1.63.48-2.22.7-.6.23-1.42.43-1.83.43-.42 0-.7.12-.62.25.23.37-5.34.98-8.86.97-3.31-.01-8.49-.58-8.49-.93 0-.11-.54-.28-1.21-.37a5.5 5.5 0 0 1-1.82-.56c-1.82-1.2-3.1-.82-3.7 1.06-.19.6-.43 1.2-.54 1.35-.11.14-.3.57-.4.94-.2.67-.56 1.55-1.5 3.64-.27.59-.57 1.4-.67 1.81-.1.41-.26.74-.36.74-.1 0-.32.52-.51 1.15-.2.63-.55 1.57-.79 2.09-.24.51-.62 1.36-.83 1.88a94.7 94.7 0 0 1-.89 2.02c-.26.6-.56 1.44-.66 1.88-.09.45-.25.87-.35.95-.16.11-1.74 3.86-1.82 4.3-.01.08-.22.6-.47 1.15a5.22 5.22 0 0 0-.45 1.39c0 .21-.09.43-.2.48-.23.1-1.4 2.77-1.6 3.66-.08.33-.24.6-.35.6-.11 0-.27.37-.36.81-.15.7-.43 1.44-1.53 3.9-1 2.26-1.88 4.45-1.88 4.66 0 .14-.28.78-.63 1.43-.34.66-.78 1.76-.97 2.46-.2.7-.52 1.42-.72 1.59-.2.16-.38.56-.38.88 0 .31-.24.97-.55 1.47-.8 1.33-.83 2.84-.05 2.96.33.04.6.2.6.33 0 .14.22.25.48.26.26 0 .81.18 1.24.4.73.38 1.69.68 5.42 1.7a7.7 7.7 0 0 1 1.75.63c.08.1.75.3 1.49.46.74.16 2.13.47 3.1.7.96.22 2.05.4 2.43.4.38.01.8.12.94.25.28.25 4.54.84 6.11.84.54 0 1.01.11 1.06.25.05.14 2.58.34 5.61.44 6.06.21 15.17-.07 14.94-.45-.09-.13.36-.24.99-.24 1.62 0 5.93-.53 6.57-.81.3-.13 1.47-.38 2.62-.56 1.15-.18 2.09-.4 2.09-.52 0-.1.6-.27 1.34-.37.73-.1 1.4-.28 1.47-.41a5.9 5.9 0 0 1 1.9-.56 6.26 6.26 0 0 0 1.9-.54c.06-.12.73-.36 1.47-.54a4.14 4.14 0 0 0 1.5-.56c.08-.14.35-.25.6-.26.25 0 .94-.24 1.54-.53.59-.28 1.24-.52 1.44-.53.2 0 .68-.18 1.07-.39.4-.2 2.36-1.18 4.36-2.15a93.02 93.02 0 0 0 6.4-3.37c.8-.37.77-1.3-.07-2.55a4.62 4.62 0 0 1-.68-1.25c0-.14-.13-.26-.28-.26-.16 0-.21-.12-.12-.27.09-.15.05-.27-.09-.27s-.33-.21-.42-.47c-.08-.26-.7-1.32-1.37-2.36a45.24 45.24 0 0 1-1.54-2.56 3.74 3.74 0 0 0-.5-.8c-.16-.13-.6-.91-1.38-2.43a3.74 3.74 0 0 0-.52-.8c-.1-.08-.37-.5-.62-.95-.24-.44-.68-1.17-.97-1.62-.3-.44-.68-1.1-.87-1.48a3.01 3.01 0 0 0-.6-.87c-.18-.13-.19-.2-.01-.2.16-.01.15-.1-.03-.21-.16-.11-.58-.7-.94-1.32l-1.7-2.96a18.3 18.3 0 0 0-1.42-2.2c-.2-.2-.35-.51-.35-.7 0-.19-.25-.62-.54-.97-.3-.34-.54-.77-.54-.97 0-.19-.15-.44-.34-.56-.4-.26-.88-.98-1.42-2.17-.22-.48-.51-.87-.65-.87-.13 0-.32-.38-.42-.83-.1-.45-.36-.9-.56-.97-.21-.08-.38-.3-.38-.5s-.15-.52-.34-.72c-.19-.2-.7-1.05-1.14-1.9a5.97 5.97 0 0 0-.99-1.55c-.1 0-.3-.36-.46-.8-.15-.45-.4-.82-.54-.82s-.34-.36-.44-.8c-.1-.45-.32-.97-.5-1.15-.4-.41-2.13-3.06-2.6-3.97-.19-.37-.42-.73-.51-.81-.1-.07-.32-.47-.5-.87-.39-.9-.96-.93-2.22-.14" fill="#94cb3c"/><path d="M182.76.27c0 .15-.55.27-1.23.27-1.58 0-4.96.56-4.96.82 0 .1-.43.28-.95.37-.51.1-.94.27-.94.38 0 .11-.55.35-1.23.53-.67.18-1.37.45-1.54.6a12.9 12.9 0 0 1-2.6 1.6c-.13 0-.3.19-.38.41-.09.23-.3.4-.47.4-.39 0-4.39 4.02-4.63 4.65-.1.26-.29.47-.42.47-.14 0-.4.37-.58.81-.19.45-.44.81-.57.81-.12 0-.3.3-.4.67-.1.37-.27.68-.4.68-.14 0-.25.12-.25.28 0 .15-.2.72-.44 1.28-.8 1.76-1.17 2.87-1.17 3.46 0 .33-.13.63-.28.68-.15.05-.35.9-.44 1.9-.1 1-.27 1.83-.4 1.83-.32 0-.3 6.35.03 6.93.14.26.33 1.17.42 2.02.1.85.26 1.55.39 1.55.12 0 .3.52.39 1.15.1.64.35 1.5.57 1.92.22.42.4.87.4 1 0 .12-12.56 12.78-27.9 28.13-30.85 30.88-28.17 28.46-30.18 27.19a5.58 5.58 0 0 0-1.62-.55 4.17 4.17 0 0 1-1.42-.5c-.53-.41-11.66-.4-12.18.01-.2.17-.9.4-1.52.5-.63.1-1.15.28-1.15.39 0 .11-.66.36-1.48.56-.81.2-1.48.43-1.48.53 0 .1-.42.34-.94.55-.52.2-.94.46-.94.58 0 .13-.19.22-.42.22a.66.66 0 0 0-.56.4c-.09.23-.3.41-.47.41-.9.02-6.62 5.74-6.63 6.64 0 .17-.18.37-.38.45-.21.08-.46.52-.56.97-.1.46-.3.83-.43.83s-.32.3-.41.67c-.1.37-.26.68-.37.68-.12 0-.37.57-.56 1.28-.2.7-.45 1.34-.58 1.43a7.91 7.91 0 0 0-.55 2.22c-.18 1.14-.42 2.07-.54 2.07-.11 0-.2 1.94-.2 4.31 0 2.37.09 4.31.2 4.31.12 0 .36.93.54 2.07a7.6 7.6 0 0 0 .56 2.22c.13.09.4.8.6 1.57.2.78.44 1.41.55 1.41.1 0 .28.37.37.81.1.45.3.8.44.8s.37.31.5.68c.15.37.36.68.47.68.12 0 .38.38.6.85.85 1.94 7.14 7.45 9.05 7.93.36.09.66.26.66.37 0 .12.55.38 1.21.57.67.2 1.22.44 1.22.54 0 .1.57.27 1.28.37.7.1 1.34.3 1.42.43.5.8 12.03.8 13.04 0 .15-.12.8-.31 1.43-.42.63-.1 1.14-.27 1.14-.38 0-.1.55-.33 1.21-.51.67-.18 1.22-.45 1.22-.6 0-.14.16-.26.36-.26.41 0 2.73-1.2 3.3-1.7.2-.18.69-.57 1.08-.86a41.6 41.6 0 0 0 4.55-4.55l.82-1.05a22.9 22.9 0 0 0 2.58-4.77c.17-.6.42-1.08.53-1.08.12 0 .3-.58.4-1.28.1-.7.3-1.35.43-1.44.84-.54.82-12.9-.02-13.43-.13-.08-.32-.66-.42-1.3-.1-.62-.29-1.14-.4-1.14-.12 0-.28-.33-.37-.74-.08-.4-.23-.94-.32-1.2-.2-.52 55.3-56.24 56.02-56.24.23 0 .41.11.41.25s.67.4 1.48.58c.82.18 1.49.43 1.49.54 0 .11.78.29 1.75.4.96.1 1.75.29 1.75.42s1.94.24 4.3.24c2.38 0 4.32-.11 4.32-.24s.78-.33 1.75-.43c.96-.1 1.75-.28 1.75-.4 0-.1.66-.35 1.48-.53.81-.18 1.48-.42 1.48-.54 0-.11.49-.36 1.08-.56.6-.2 1.08-.46 1.08-.58 0-.12.17-.23.39-.23.21 0 .48-.15.6-.33.12-.19.58-.52 1.02-.74.44-.23 1-.59 1.25-.81l2.1-1.88a9.65 9.65 0 0 0 1.64-1.7c0-.11.34-.55.76-.96.42-.4.93-1.13 1.14-1.6.21-.48.47-.87.56-.87.26 0 1.58-2.6 1.58-3.1 0-.24.17-.6.38-.82.2-.2.47-.9.57-1.52.1-.64.3-1.23.44-1.31.14-.09.32-1.03.41-2.1.1-1.05.27-1.92.4-1.92.3 0 .3-6.12 0-6.3-.13-.08-.31-.96-.4-1.95-.1-1-.28-1.88-.41-1.97a5 5 0 0 1-.6-1.7c-.18-.85-.44-1.55-.56-1.55-.13 0-.23-.14-.23-.3 0-.47-1.33-3.2-1.56-3.2-.1 0-.35-.36-.55-.8-.56-1.27-4.8-5.93-5.38-5.93-.16 0-.45-.22-.65-.47-.2-.26-.6-.62-.89-.8-2.24-1.37-3.5-2-4.18-2.14-.44-.1-.8-.26-.8-.38 0-.11-.4-.3-.87-.4-.48-.1-1-.29-1.16-.4-.36-.3-3.44-.8-4.9-.8-.63 0-1.15-.12-1.15-.27 0-.15-.8-.27-1.88-.27-1.08 0-1.89.12-1.89.27M66.8 91.04c0 .42.1.7.2.64.12-.07.2-.36.2-.64 0-.27-.08-.56-.2-.63-.1-.07-.2.22-.2.63m.3 57.54c-.42.37-.71.73-.65.8.07.06.47-.25.9-.7.93-.97.8-1.03-.24-.1m-12.67 12.65c-.56.53-.97 1.02-.91 1.08.06.06.58-.38 1.16-.97 1.3-1.33 1.13-1.4-.25-.1m-2.96 2.96c-.56.53-.97 1.01-.91 1.07.06.06.58-.38 1.15-.97 1.3-1.33 1.14-1.4-.24-.1m-3.35 3.26c-.34.37-.58.72-.52.78.06.06.45-.26.88-.7.42-.44.66-.8.52-.78-.14.02-.54.33-.88.7m-2.96 2.97c-.35.37-.58.72-.52.77.06.06.45-.25.88-.7.42-.44.65-.79.51-.77-.13.01-.53.33-.87.7m-2.96 2.96c-.35.37-.58.72-.52.78.05.05.45-.26.87-.7.43-.45.66-.8.52-.78-.14.01-.53.33-.87.7m-2.97 2.96c-.34.37-.57.72-.52.78.06.06.46-.26.88-.7.42-.44.66-.8.52-.78-.14.02-.53.33-.88.7m-3.13 3.27l-.8.99 1-.93c1.03-.96 1.14-1.1.8-1.07-.12 0-.56.46-1 1m-2.83 2.83l-.65.86.86-.8c.89-.81.99-.96.65-.94-.1.01-.5.4-.86.88m-2.94 2.9c-.88 1.13-.61 1.18.33.07.42-.5.66-.9.54-.88-.13 0-.52.38-.87.82" fill="#444"/><path d="M96.83 52.3v27.98l.61.23c.34.12 1.42.31 2.42.42 1 .1 1.88.29 1.95.4.08.13.68.3 1.35.4.66.1 1.27.3 1.35.42.5.8 2.7-1.26 21.9-20.46a1513.7 1513.7 0 0 0 20.26-20.46c0-.24-1.54-1.63-1.8-1.63-.1 0-.55-.28-1-.62-.46-.34-1.14-.76-1.51-.94a13.8 13.8 0 0 1-1.08-.58 96.68 96.68 0 0 0-6.87-3.78c-.74-.33-2.2-1-3.26-1.51-1.06-.51-2.03-.93-2.16-.93-.13 0-.72-.25-1.31-.53a5.51 5.51 0 0 0-1.54-.53c-.25 0-.52-.12-.6-.25-.08-.13-.48-.32-.9-.42a86.13 86.13 0 0 1-5.85-1.77c-.63-.27-2.37-.68-5.39-1.26-1.18-.23-2.4-.52-2.7-.64-.29-.12-1.32-.3-2.28-.39-.96-.1-2.72-.33-3.9-.54-1.2-.2-3.4-.41-4.92-.47l-2.76-.12V52.3m-71.25 1.11c-.89.94-2.46 2.72-3.5 3.98a119 119 0 0 1-2.38 2.81c-.28.3-.88 1.09-1.34 1.75a93.1 93.1 0 0 1-1.86 2.56 6.2 6.2 0 0 0-1.02 1.68c0 .19-.1.34-.24.34-.13 0-.39.37-.57.81-.18.44-.44.8-.57.8-.12 0-.3.31-.4.68-.09.37-.27.67-.39.67s-.37.43-.56.95c-.19.52-.42.94-.52.94-.1 0-.35.4-.54.88-.2.48-.44.93-.53 1-.23.18-2.73 5.44-4.04 8.5-1.03 2.42-1.3 3.14-1.47 3.87-.1.46-.28.84-.4.84-.11 0-.29.48-.38 1.08-.1.6-.3 1.3-.44 1.55-.3.55-.97 2.94-1.58 5.72a15.98 15.98 0 0 1-.61 2.28c-.1.15-.26 1-.37 1.89-.1.89-.29 1.74-.4 1.89-.24.32-.8 4.97-.8 6.65 0 .65-.11 1.3-.25 1.44-.13.14-.28 2.26-.33 4.7l-.1 4.44 27.94.07 27.94.07.13-.6c.06-.34.2-1.85.28-3.36.1-1.52.33-3.34.53-4.05.2-.7.45-1.77.55-2.36.1-.6.28-1.2.4-1.35.1-.15.29-.63.4-1.08.1-.44.38-1.23.6-1.75.74-1.66 1.83-3.9 1.97-4.04.07-.07.32-.5.54-.94.22-.44.53-.95.67-1.14.47-.56.79-.99 1.72-2.32.5-.7 1.43-1.85 2.08-2.54a5.03 5.03 0 0 0 1.19-1.65c0-.32-16.73-17.38-20.59-21a24.73 24.73 0 0 1-1.48-1.48c-.23-.28-.9-.95-1.48-1.49a23.5 23.5 0 0 1-1.48-1.48c-.24-.27-.9-.94-1.48-1.48s-1.25-1.2-1.48-1.48c-.24-.28-.9-.94-1.49-1.48-.58-.54-1.24-1.2-1.48-1.48-.23-.28-.9-.95-1.48-1.48a23.8 23.8 0 0 1-1.48-1.48c-.23-.28-.9-.95-1.48-1.49-.58-.53-1.25-1.2-1.48-1.48-2.08-2.5-2.41-2.52-4.47-.36m123.67 31.37a2277.17 2277.17 0 0 0-20.34 20.5c-.2.31.25 2.16.8 3.3.1.23.34 1.6.52 3.03l.33 2.6h56.29l-.2-2.9c-.23-3.4-.27-3.84-.47-4.37-.08-.23-.3-1.86-.48-3.64a23.93 23.93 0 0 0-.55-3.64 9.95 9.95 0 0 1-.48-1.88c-.44-2.45-1.1-5.2-1.34-5.5a8.64 8.64 0 0 1-.57-1.9c-.19-.88-.44-1.79-.56-2.02-.22-.42-.86-2.29-1.41-4.12-.17-.55-.39-1-.5-1-.1 0-.32-.61-.5-1.35-.18-.75-.43-1.35-.57-1.35-.13 0-.24-.14-.24-.3 0-.17-.8-1.9-1.77-3.84-3.64-7.28-6.4-11.73-7.28-11.74-.4-.01-6.6 6.02-20.68 20.12m-99.52 81.46a1524.7 1524.7 0 0 0-19.7 19.88c0 .62 6.52 6.13 9.22 7.78.56.34 1.01.71 1.01.82 0 .1.4.4.88.65.97.5 1.88 1.06 2.08 1.27.48.5 3.27 2.07 7 3.96 1.12.56 2.09 1.09 2.16 1.17.17.2 1.87.79 2.28.79.17 0 .46-.46.65-1.01.19-.56.5-1.38.7-1.82.2-.44.63-1.47.95-2.29.33-.81.77-1.8.98-2.2.2-.39.37-.83.37-.97 0-.15.33-.98.73-1.85.4-.87.75-1.64.76-1.71.08-.32.47-1.3.93-2.3.28-.58.59-1.43.7-1.88.1-.44.27-.87.37-.94.1-.07.4-.74.67-1.48s.78-1.98 1.13-2.75c.35-.76.63-1.48.63-1.58 0-.1.23-.69.52-1.3.9-1.92 1.37-3.07 1.38-3.3 0-.13.24-.72.53-1.3.28-.6.52-1.19.53-1.31 0-.24.23-.77 1.46-3.46.39-.84.7-1.72.7-1.96 0-.23.11-.42.25-.42.13 0 .4-.6.59-1.34.18-.74.42-1.35.52-1.35.1 0 .33-.51.51-1.14.2-.63.64-1.75 1-2.49.35-.74.77-1.8.92-2.36.15-.56.39-1.01.53-1.01s.26-.19.26-.41c0-.39.85-2.61 1.77-4.62.52-1.14.6-1.02-1.3-2.12a39.34 39.34 0 0 1-3.03-1.99 39 39 0 0 0-1.64-1.17c-.17-.1-8.74 8.25-20 19.51m66.63-19.02l-.75.7.62 1.13c.34.61.7 1.18.78 1.25.1.08.32.44.5.81.57 1.1 1.38 2.5 1.95 3.37.29.44.68 1.1.86 1.48.18.37.4.73.49.8.08.08.5.75.91 1.49.43.74.92 1.53 1.1 1.75.18.22.64.95 1 1.62.37.66 1.12 1.96 1.66 2.87.53.91.98 1.78.98 1.92 0 .15.15.33.33.4.19.08.7.85 1.15 1.71.44.87.93 1.72 1.07 1.9.66.81.84 1.07 1.15 1.7.19.37.7 1.28 1.16 2.02.44.74.89 1.53.98 1.75.1.22.25.47.34.54.1.08.77 1.14 1.5 2.37l1.94 3.23c.33.55.75 1.3.94 1.67.18.37.49.77.68.9.18.11.34.38.34.58 0 .2.18.55.4.77.22.23.52.69.67 1.03.15.35.54 1.07.88 1.61 1.12 1.81 3.57 5.92 3.84 6.47.3.6 1.91.54 2.43-.1a8 8 0 0 1 2.18-1.56c.1 0 .38-.18.62-.4 1.27-1.15 1.6-1.43 1.84-1.52.34-.13 2.1-1.6 4.05-3.4.85-.77 1.63-1.4 1.74-1.41.78-.01-38.16-39.68-39.33-40.07-.13-.05-.58.23-1 .62" fill="#4c5c34"/><path d="M92.19 155.08c.63.06 1.66.06 2.29 0 .63-.06.11-.1-1.15-.1s-1.77.04-1.14.1" fill="#78b43c"/><path d="M130.61 119.17c-.08.21-.1.67-.05 1.01.08.46.14.36.24-.38.14-1.05.07-1.3-.19-.63" fill="#707c3c"/></g></svg>
